<svg version="1.1" id="Layer_1" xmlns="http://www.w3.org/2000/svg" xmlns:xlink="http://www.w3.org/1999/xlink" x="0px" y="0px"
	 width="100%" viewBox="0 0 400 320" enable-background="new 0 0 400 320" xml:space="preserve">
<path fill="#ffffff" opacity="1.000000" stroke="none" 
	d="
M91.952873,218.924942 
	C98.658195,232.010086 99.137367,234.104691 98.033127,245.568100 
	C96.658455,247.146896 95.290871,245.132492 93.492096,245.632523 
	C102.426598,251.234116 108.226318,258.752411 109.883675,268.639557 
	C108.495338,271.151733 106.170395,269.748901 104.575050,271.033661 
	C114.595825,273.363281 122.907555,277.832153 128.393829,286.810760 
	C130.822052,290.784698 135.679901,291.908752 139.296051,294.522491 
	C157.947342,308.003540 179.409073,313.358948 201.792297,314.707947 
	C218.610779,315.721588 234.863647,311.907715 251.240875,307.276062 
	C269.406403,302.138702 284.665741,292.469818 298.349640,280.899719 
	C325.462067,257.975464 341.877045,227.967545 347.483856,192.882278 
	C354.213776,150.768768 343.807159,112.619270 317.398468,79.102242 
	C295.845093,51.747425 267.864349,34.127701 233.639420,27.712860 
	C199.519104,21.317633 167.476715,28.520508 137.736984,46.055809 
	C120.002251,56.512657 102.985504,68.002502 91.453445,85.673439 
	C78.727409,105.173935 71.048721,126.675995 67.367424,149.607330 
	C65.841774,159.110870 64.725151,168.679611 63.359585,178.209671 
	C63.081001,180.153870 62.890438,182.769272 60.511589,182.912766 
	C57.953785,183.067032 57.867420,180.341812 57.409538,178.478577 
	C53.991417,164.569305 55.240303,150.612534 58.153252,136.923630 
	C71.446770,74.453117 110.394821,35.887001 170.813995,18.275671 
	C190.651169,12.493417 211.117645,12.356857 231.645004,15.384987 
	C295.028229,24.735083 344.305389,75.709633 356.104797,136.379074 
	C366.653015,190.615417 353.303986,238.645950 313.659576,277.816650 
	C290.197083,300.998779 261.600525,314.614136 228.370331,318.572021 
	C196.575424,322.358917 167.229507,315.468842 139.316711,300.862671 
	C135.247787,298.733459 130.518219,296.957001 128.811798,291.659058 
	C128.153870,289.616364 125.993568,290.746368 124.401703,291.132629 
	C113.792732,293.706940 104.359810,290.546478 95.514954,284.968262 
	C91.611961,282.506744 88.819702,279.042267 87.582451,274.383759 
	C90.340530,271.542419 94.507072,272.391815 98.354149,270.206329 
	C86.793396,264.067017 76.607010,257.151367 75.028656,243.107742 
	C78.766533,240.288422 82.641502,243.505630 86.629814,242.282547 
	C83.436333,238.194946 79.763451,234.782486 77.345024,230.411621 
	C74.311127,224.928406 72.295517,219.200668 72.708229,212.826630 
	C72.931786,209.374008 74.411728,208.031448 77.957802,209.422211 
	C81.253700,210.714859 84.138367,212.644012 87.589447,214.897461 
	C89.394836,216.474258 90.673851,217.699600 91.952873,218.924942 
z"/>
<path fill="#000000" opacity="1.000000" stroke="none" 
	d="
M259.404541,118.534180 
	C265.066345,124.029678 264.865143,127.947418 258.682251,134.196136 
	C261.165955,138.420105 264.454224,142.110718 267.781952,145.764038 
	C269.300446,147.431122 271.066864,147.723846 273.202606,146.790710 
	C275.431152,145.817017 276.688629,144.400848 276.669220,141.876846 
	C276.624390,136.044479 276.457367,130.201828 276.739899,124.382782 
	C276.886993,121.353195 273.841461,120.503120 273.243317,118.196411 
	C274.400909,116.203552 276.201080,116.838501 277.791962,116.828781 
	C282.456970,116.800278 287.122498,116.777122 291.787231,116.818756 
	C293.538696,116.834381 295.763184,115.999596 296.786987,117.978928 
	C297.879852,120.091766 297.088318,122.141525 295.082825,123.932625 
	C291.566437,122.342094 288.246368,118.239418 283.954529,121.456650 
	C281.380127,123.386467 281.501556,127.168983 282.738495,129.345505 
	C285.845306,134.812195 290.398651,129.077240 294.270752,129.853638 
	C293.875183,135.928665 292.703552,136.831314 287.608978,135.681641 
	C285.596863,135.227600 282.758484,134.542114 282.531616,137.763702 
	C282.319916,140.769714 280.815552,144.820190 285.889313,145.781601 
	C290.835724,146.718872 294.901611,144.725922 298.551025,141.218811 
	C299.748962,146.923859 297.322357,150.342941 292.586853,149.693970 
	C285.416718,148.711395 278.244476,149.314697 271.230438,150.104492 
	C265.247345,150.778214 261.828186,148.542130 258.621094,144.209518 
	C256.484772,141.323471 254.894470,137.781708 251.171585,136.387726 
	C250.268280,136.049500 249.295822,135.602875 247.881119,136.405594 
	C247.051529,140.919876 245.557388,145.735153 252.467743,147.783585 
	C248.609467,150.788757 242.436996,150.888947 238.359451,148.501236 
	C243.310318,141.889587 243.098404,124.785728 237.404266,117.320747 
	C245.033417,117.042831 252.093323,115.165627 259.404541,118.534180 
M252.119827,131.790573 
	C255.654846,131.344345 257.695984,129.346176 257.028229,125.802872 
	C256.489227,122.942757 254.708954,120.438774 251.345200,120.538177 
	C248.193085,120.631332 247.301743,123.004372 247.387833,125.775543 
	C247.474304,128.559387 246.280594,132.249619 252.119827,131.790573 
z"/>
<path fill="#000000" opacity="1.000000" stroke="none" 
	d="
M92.341049,218.958893 
	C90.673851,217.699600 89.394836,216.474258 87.894691,214.979248 
	C81.041069,204.723495 76.741837,194.218323 80.631195,181.986801 
	C82.682182,175.536728 84.460297,175.187454 89.252930,180.150925 
	C98.714996,189.950287 100.432350,201.564224 96.959366,214.234451 
	C96.412514,216.229462 95.953926,219.042923 92.341049,218.958893 
z"/>
<path fill="#000000" opacity="1.000000" stroke="none" 
	d="
M144.431458,116.847054 
	C149.372620,116.867897 153.868134,116.895081 158.362289,116.828667 
	C164.745560,116.734344 165.485275,117.955162 162.261932,123.929047 
	C158.461502,122.296494 154.673752,117.814735 150.347778,122.037025 
	C148.273712,124.061401 148.434387,127.921455 150.051315,130.006271 
	C153.278946,134.167862 157.273987,129.497269 161.287888,129.912872 
	C161.578751,132.853180 160.305237,134.970642 158.140366,136.986526 
	C157.368393,136.682465 156.611832,136.418915 155.884155,136.091187 
	C153.998169,135.241821 151.759644,134.442657 150.302277,136.099701 
	C148.404984,138.256958 149.123474,141.232224 149.682663,143.757019 
	C150.171860,145.965820 152.474823,145.581390 154.271942,145.859528 
	C158.815536,146.562698 162.049438,143.806274 165.493378,141.452713 
	C166.765701,146.268768 164.734390,150.131271 160.770462,149.820847 
	C154.279465,149.312515 147.847641,149.183655 141.376831,149.829224 
	C140.696014,149.897156 139.941025,149.221710 139.169998,148.868011 
	C145.017349,141.116562 145.570831,124.975243 140.329971,118.377335 
	C140.901917,116.376999 142.577301,116.895546 144.431458,116.847054 
z"/>
<path fill="#000000" opacity="1.000000" stroke="none" 
	d="
M227.670288,126.342628 
	C228.414444,122.520691 226.293503,120.374649 223.831741,118.078766 
	C227.640259,115.995361 231.076035,116.502396 235.447647,117.480972 
	C229.151031,123.423187 231.714905,130.625992 231.401474,137.295380 
	C231.022430,145.360916 226.967331,150.050537 219.456970,150.325928 
	C210.981445,150.636703 205.500961,146.182892 204.786057,138.157257 
	C204.506683,135.020950 204.600250,131.838806 204.708023,128.683823 
	C204.840317,124.811508 204.953873,121.012375 201.094116,118.552414 
	C204.499115,116.266731 209.362396,116.072067 213.670776,117.841324 
	C209.254135,125.199844 211.173523,133.217285 211.614136,140.964600 
	C211.829636,144.753433 215.356918,146.360184 218.916077,146.447983 
	C223.223038,146.554260 227.140289,142.830048 227.532166,138.262115 
	C227.858047,134.463562 227.645721,130.618835 227.670288,126.342628 
z"/>
<path fill="#000000" opacity="1.000000" stroke="none" 
	d="
M249.531387,164.452362 
	C253.653198,168.779434 257.538330,172.844437 261.501587,176.991150 
	C263.711426,171.271164 263.033264,164.997482 259.681732,160.031937 
	C262.657166,158.306396 265.586212,158.526505 268.941833,159.783295 
	C263.554596,168.656952 268.026306,178.606796 265.388855,188.932190 
	C257.853424,182.863052 253.388962,175.038391 245.607208,169.176300 
	C245.714066,175.537094 243.447433,181.275711 248.783417,186.409653 
	C245.154633,187.872116 241.986557,187.688370 238.716248,186.913071 
	C244.352722,178.097305 241.021530,168.899185 240.989929,159.739441 
	C245.356644,158.230957 247.109512,161.636536 249.531387,164.452362 
z"/>
<path fill="#000000" opacity="1.000000" stroke="none" 
	d="
M189.861038,121.792908 
	C180.657181,120.238876 175.785965,123.171646 175.656006,130.664001 
	C175.562729,136.041840 177.707321,140.734299 182.822006,143.506622 
	C187.557129,146.073181 192.421860,144.527405 197.905792,143.229965 
	C196.228531,148.214706 192.616272,149.406296 189.240402,150.141510 
	C180.958939,151.945068 171.656174,145.175186 170.025391,136.581635 
	C168.293137,127.453453 174.412674,118.295876 183.336319,116.793961 
	C186.639694,116.237976 190.023209,116.234077 193.267853,116.994347 
	C195.306870,117.472122 197.830704,118.426018 196.955933,121.322525 
	C196.010757,124.452080 193.684982,123.290604 191.637436,122.447411 
	C191.175812,122.257309 190.696106,122.111168 189.861038,121.792908 
z"/>
<path fill="#000000" opacity="1.000000" stroke="none" 
	d="
M125.887268,120.478210 
	C123.225319,120.382095 121.602570,121.470039 121.042107,123.637367 
	C120.447876,125.935257 122.541374,126.807076 123.938705,127.812439 
	C125.949356,129.259094 128.191132,130.379883 130.290588,131.708755 
	C134.140778,134.145782 137.193695,137.090179 136.126236,142.231888 
	C135.189713,146.742889 130.760834,150.035492 125.380913,150.325638 
	C123.037003,150.452057 120.736374,150.267365 118.534073,149.344940 
	C115.326500,148.001480 115.078812,147.242783 116.661285,143.205948 
	C119.522293,142.776886 121.214546,145.751587 123.982712,145.766159 
	C126.665207,145.780258 129.680527,146.328140 130.930695,143.269882 
	C132.252701,140.035950 129.079376,139.071899 127.203255,137.686935 
	C124.540489,135.721283 121.468727,134.256546 119.003700,132.086990 
	C113.624763,127.352791 114.790550,120.716225 121.262085,117.632622 
	C124.443802,116.116585 127.773987,116.562080 131.057632,116.845726 
	C132.532318,116.973106 134.026932,117.708229 134.357346,119.438416 
	C134.574722,120.576569 134.524521,121.853966 133.497879,122.647682 
	C131.917465,123.869522 130.748642,122.475021 129.454987,121.852905 
	C128.412125,121.351402 127.320229,120.951881 125.887268,120.478210 
z"/>
<path fill="#000000" opacity="1.000000" stroke="none" 
	d="
M289.858826,158.670288 
	C291.294128,158.759827 292.347900,158.659607 293.259766,158.972656 
	C295.144348,159.619690 297.422791,160.387650 296.678253,162.987915 
	C295.830536,165.948395 293.761353,164.635681 291.854156,163.942734 
	C284.933746,161.428345 280.203094,162.983826 278.139313,168.327225 
	C275.903046,174.117325 278.897369,181.043274 284.770264,183.733200 
	C287.039062,184.772354 289.420837,185.376816 291.040314,182.996201 
	C292.704376,180.550034 291.417908,178.633286 289.144348,177.215485 
	C288.772339,176.983475 288.574951,176.471390 288.008759,175.692383 
	C291.807678,173.998734 295.393127,174.505051 299.454651,175.164032 
	C298.228394,177.976410 297.426758,180.447052 297.287872,183.320557 
	C297.069916,187.829224 292.464172,187.844604 289.358398,188.195511 
	C280.217560,189.228317 272.895355,183.150711 272.417572,174.740219 
	C271.846771,164.691849 278.032471,158.842041 289.858826,158.670288 
z"/>
<path fill="#000000" opacity="1.000000" stroke="none" 
	d="
M165.737625,158.899078 
	C167.262146,159.014679 168.473389,158.982849 169.339386,160.582932 
	C165.859451,163.902603 163.372665,168.139633 160.757217,172.276855 
	C157.095016,178.069839 157.311127,180.922897 162.017487,186.651382 
	C157.794891,187.857239 153.952988,187.565201 149.827560,186.872955 
	C154.944946,180.345306 155.014877,178.295303 150.327850,171.270828 
	C147.869019,167.585739 145.260742,164.000351 142.574661,160.162369 
	C145.918488,158.197250 149.222229,158.771317 153.070526,159.570541 
	C150.956451,163.809845 153.266312,166.533463 155.951523,169.051895 
	C156.826447,169.872482 157.884277,169.467636 158.602997,168.664581 
	C160.749695,166.266037 162.820404,163.806503 160.659317,160.502533 
	C161.985031,158.634216 163.755615,159.023285 165.737625,158.899078 
z"/>
<path fill="#000000" opacity="1.000000" stroke="none" 
	d="
M136.746735,159.437775 
	C138.782730,160.403259 139.953690,161.417938 138.741791,163.464630 
	C137.589874,165.410034 136.068085,164.883881 134.403015,164.263794 
	C132.262817,163.466782 130.251205,162.265030 127.727142,162.819794 
	C122.220146,164.030167 119.290176,168.419891 120.487335,173.970108 
	C121.794914,180.032257 127.802711,184.454086 133.263504,183.452148 
	C135.097580,183.115631 136.798553,181.388489 139.074570,182.889343 
	C137.956650,187.145584 134.266174,187.772995 130.980804,188.216019 
	C123.376480,189.241470 116.232246,183.252518 115.169907,175.405762 
	C114.099640,167.500473 119.733521,159.756546 127.487839,158.798569 
	C130.430878,158.434967 133.475296,158.203552 136.746735,159.437775 
z"/>
<path fill="#000000" opacity="1.000000" stroke="none" 
	d="
M182.183899,187.275070 
	C173.488480,183.062561 170.225159,175.835480 173.160538,168.079819 
	C175.877045,160.902435 184.653244,156.695740 192.510895,158.969009 
	C194.285110,159.482300 196.870819,159.949905 196.005890,162.799576 
	C195.212326,165.414078 193.195480,165.160233 191.154022,164.169144 
	C186.885941,162.097076 182.647064,161.751373 179.455566,165.805161 
	C176.483185,169.580643 176.642395,173.849640 179.176331,177.928513 
	C182.052444,182.558197 186.505203,184.389160 191.533722,183.167847 
	C192.908295,182.834015 194.228851,181.688644 195.760132,182.730667 
	C193.577728,187.856750 189.599136,189.245331 182.183899,187.275070 
z"/>
<path fill="#000000" opacity="1.000000" stroke="none" 
	d="
M208.254700,176.762970 
	C208.420456,186.012802 208.868927,186.132782 222.386658,180.789825 
	C223.211243,184.566299 221.869888,187.399414 218.217133,187.681351 
	C211.982773,188.162537 205.684372,187.814011 198.909256,187.814011 
	C204.705276,178.165329 203.741882,169.250214 200.375702,159.714005 
	C203.460556,158.325806 207.002151,158.525803 211.142502,159.845184 
	C206.645752,165.001907 208.756378,170.838257 208.254700,176.762970 
z"/>
<path fill="#000000" opacity="1.000000" stroke="none" 
	d="
M185.555237,206.858765 
	C188.731857,213.250839 189.437378,205.868317 191.914597,206.262497 
	C192.690933,209.173523 192.491577,212.165436 191.944138,215.164612 
	C189.256912,215.953995 190.353363,212.212875 188.713470,212.535797 
	C185.928635,212.074493 186.481049,214.995392 184.600052,215.599625 
	C182.588867,214.348007 183.408463,212.249084 183.277985,210.424881 
	C183.183533,209.104065 183.174652,207.585953 181.186813,207.754517 
	C179.635956,207.886032 179.555771,209.115585 179.378143,210.303833 
	C179.127853,211.978027 180.018311,213.893097 178.403076,215.394913 
	C175.468521,213.545731 178.683121,209.270416 175.118347,207.590530 
	C171.810242,209.376465 174.673462,213.317734 172.303619,215.606995 
	C170.005127,213.846603 171.251068,211.254272 170.574478,209.010025 
	C167.851105,210.515015 169.156784,214.329315 166.676361,215.796860 
	C164.479111,215.559479 164.812912,213.145096 163.329208,212.187592 
	C161.379089,212.454712 162.065857,215.106613 159.613632,215.780090 
	C156.836533,213.457855 156.786453,209.982285 156.257523,206.111038 
	C158.903839,206.710144 158.546951,208.785721 159.843262,209.695206 
	C161.483231,209.168381 160.993210,206.646805 163.123413,206.179764 
	C165.065079,206.163071 164.575760,208.761826 165.793121,209.404388 
	C171.602158,203.043808 178.640411,205.930054 185.555237,206.858765 
z"/>
<path fill="#000000" opacity="1.000000" stroke="none" 
	d="
M226.902435,159.153320 
	C230.048492,158.977493 232.862106,158.409531 236.062790,159.921829 
	C232.369354,164.170731 233.191238,169.042328 233.393051,173.705612 
	C233.583847,178.114670 231.431900,183.126404 237.315125,186.732895 
	C232.595947,187.729233 229.092682,187.577972 225.706116,186.947968 
	C228.520691,178.068954 229.890945,169.392471 225.545242,160.703888 
	C225.162735,159.939117 225.964706,159.583069 226.902435,159.153320 
z"/>
<path fill="#000000" opacity="1.000000" stroke="none" 
	d="
M218.587418,211.640945 
	C215.793991,217.154892 214.038193,217.473450 207.661804,213.872238 
	C204.649399,215.914917 201.265488,218.307907 198.461182,213.823532 
	C196.880920,211.296555 196.847382,208.037598 199.881912,206.427063 
	C202.516556,205.028732 205.562180,204.812134 207.166946,208.876312 
	C206.389771,208.962769 205.838730,209.206192 205.533340,209.028198 
	C203.680847,207.948486 201.945862,207.234726 200.325912,209.417084 
	C199.305496,210.791794 199.661026,211.915176 200.848465,212.860123 
	C202.959824,214.540344 204.511002,212.791901 206.229477,211.929382 
	C207.381836,211.350998 207.870743,210.322647 208.319885,209.261154 
	C209.424637,206.650208 211.291977,205.277328 214.168060,205.778275 
	C217.176453,206.302277 218.879623,208.033615 218.587418,211.640945 
M215.179108,208.534027 
	C213.074524,206.960617 211.848526,208.228943 210.860291,209.945358 
	C210.324783,210.875473 210.424973,211.886551 211.249176,212.653702 
	C212.317337,213.647964 213.606323,213.983643 214.847519,213.108994 
	C216.357727,212.044708 217.126373,210.686340 215.179108,208.534027 
z"/>
<path fill="#000000" opacity="1.000000" stroke="none" 
	d="
M132.087097,206.538239 
	C133.388138,209.897552 132.959198,212.804718 131.753403,215.893524 
	C128.843918,214.546707 129.788406,212.225998 129.235275,210.389847 
	C125.807579,211.479904 129.246429,214.132050 127.821426,215.986465 
	C125.825615,214.410202 123.664749,213.140701 121.510406,216.145508 
	C119.714859,212.540115 120.025124,209.191132 121.637230,206.683243 
	C122.974991,204.602173 125.796837,205.774414 128.076187,206.489014 
	C129.201065,206.841705 130.584198,206.370575 132.087097,206.538239 
z"/>
<path fill="#000000" opacity="1.000000" stroke="none" 
	d="
M288.342682,216.282837 
	C281.815094,217.083542 283.728271,212.290955 283.335510,209.328354 
	C282.837677,205.573608 285.581116,205.586212 288.217194,205.641357 
	C294.637177,205.775696 295.662048,207.764099 293.227417,215.599152 
	C289.423737,214.572647 294.183044,206.375854 286.886536,208.222672 
	C287.576782,209.514130 289.977722,208.921844 289.774658,210.906967 
	C289.354767,212.782928 286.858673,211.380814 286.572205,212.252686 
	C286.157532,214.873840 291.390015,212.603302 288.342682,216.282837 
z"/>
<path fill="#000000" opacity="1.000000" stroke="none" 
	d="
M223.218597,211.434158 
	C221.882477,212.565903 222.990494,214.718628 220.846329,215.841873 
	C218.429459,212.963943 218.778717,209.093536 220.135269,206.836716 
	C221.924393,203.860260 223.306976,207.844910 225.145767,208.710526 
	C226.944839,209.109543 226.311813,205.972290 228.636292,206.379532 
	C230.716217,209.331802 229.275269,212.499359 229.008774,215.714783 
	C225.449631,215.846161 225.194733,212.768143 223.218597,211.434158 
z"/>
<path fill="#000000" opacity="1.000000" stroke="none" 
	d="
M261.002075,207.006332 
	C264.825745,203.689529 265.425934,208.604294 267.671051,209.617142 
	C269.494720,209.318130 267.998138,206.682846 270.306976,206.281693 
	C272.358459,209.281433 271.329926,212.440308 270.641693,215.761780 
	C267.379425,215.918045 267.037811,212.958145 265.030273,211.358459 
	C263.980377,212.548203 265.238037,214.995865 262.894775,215.774490 
	C260.234650,213.604782 261.795380,210.323761 261.042725,207.315247 
	C261.017731,206.976257 261.002075,207.006332 261.002075,207.006332 
z"/>
<path fill="#000000" opacity="1.000000" stroke="none" 
	d="
M136.932556,205.710938 
	C142.958542,206.917404 145.092545,210.558975 142.249420,214.069305 
	C140.774521,215.890335 138.736725,216.418182 136.479324,216.224472 
	C134.637192,216.066406 133.777084,214.784653 133.915558,213.194305 
	C134.146820,210.537674 132.241577,207.028946 136.932556,205.710938 
M140.104828,211.785263 
	C140.949448,209.454437 139.932037,208.424225 137.367294,208.154114 
	C136.745850,209.806076 135.532028,211.444382 137.168961,213.056030 
	C137.968124,213.842865 138.980988,212.919174 140.104828,211.785263 
z"/>
<path fill="#000000" opacity="1.000000" stroke="none" 
	d="
M251.969559,212.578827 
	C251.285751,213.594666 250.829590,214.323456 250.196655,214.832413 
	C248.390915,216.284470 246.036438,217.138489 244.218597,215.741287 
	C241.591568,213.722122 242.916779,210.536545 243.148544,207.835587 
	C243.308975,205.965851 244.916336,205.688248 246.526138,205.690567 
	C249.368881,205.694687 251.294327,206.988846 252.080658,209.731842 
	C252.298737,210.492599 252.115570,211.368378 251.969559,212.578827 
M245.405777,211.150879 
	C245.513962,212.321167 245.516144,213.710678 247.274933,213.278885 
	C248.597244,212.954269 248.918015,211.754303 248.891937,210.527878 
	C248.864929,209.256287 248.333374,208.096741 246.988602,208.025589 
	C245.267044,207.934509 245.618790,209.503799 245.405777,211.150879 
z"/>
<path fill="#000000" opacity="1.000000" stroke="none" 
	d="
M261.027710,206.961243 
	C259.971313,207.380539 258.904907,207.814865 257.824860,208.254761 
	C257.679016,209.602463 259.960541,209.382034 259.851135,209.689194 
	C259.113647,212.626144 257.075073,211.597092 256.290344,212.824509 
	C256.637726,214.582825 259.313721,213.275681 259.571381,215.694809 
	C257.675293,216.426910 255.170242,217.213593 254.095825,215.185120 
	C252.837112,212.808731 252.312027,209.429901 253.720413,207.042282 
	C255.157532,204.605957 258.032776,205.434555 260.699219,206.729340 
	C261.002075,207.006332 261.017731,206.976257 261.027710,206.961243 
z"/>
<path fill="#000000" opacity="1.000000" stroke="none" 
	d="
M274.911713,209.719223 
	C275.028839,216.249725 278.934540,212.500046 281.838867,212.409286 
	C281.647797,215.521301 279.612518,216.232361 277.219940,216.196030 
	C274.562958,216.155685 272.843781,214.693665 272.516327,211.987167 
	C272.191010,209.297943 272.833313,206.797089 275.690338,205.966766 
	C278.278442,205.214615 280.800293,205.557861 282.243103,209.037827 
	C279.513000,209.451584 276.921753,205.450378 274.911713,209.719223 
z"/>
<path fill="#000000" opacity="1.000000" stroke="none" 
	d="
M150.403687,215.940094 
	C144.194412,217.505859 144.686768,213.548248 144.604019,209.742325 
	C144.497589,204.847870 147.540573,205.580963 151.214157,206.049835 
	C149.725967,207.694336 148.157455,209.331436 150.737427,210.547287 
	C150.312393,212.755478 147.857239,211.506561 147.281830,213.053192 
	C147.880859,214.711639 150.929626,213.121597 150.403687,215.940094 
z"/>
<path fill="#000000" opacity="1.000000" stroke="none" 
	d="
M65.331017,190.483551 
	C66.414070,198.900345 68.311996,206.784729 69.826485,214.762543 
	C66.333916,210.622040 65.437553,205.491669 64.736145,200.588364 
	C64.246880,197.168137 63.415577,193.816986 62.998154,190.397461 
	C62.880905,189.437012 62.878849,188.189926 64.251717,188.187866 
	C65.329323,188.186234 65.151154,189.340668 65.331017,190.483551 
z"/>
<path fill="#000000" opacity="1.000000" stroke="none" 
	d="
M235.887436,205.703613 
	C237.909607,207.161972 232.717850,209.406143 237.576416,210.313019 
	C235.283112,212.249710 233.294434,213.519333 232.142151,215.846176 
	C229.020386,209.418243 230.210388,206.199295 235.887436,205.703613 
z"/>
<path fill="#000000" opacity="1.000000" stroke="none" 
	d="
M241.548569,213.365479 
	C241.106049,215.473618 240.120468,217.303589 239.145187,214.350769 
	C238.344086,211.925247 237.891525,208.858093 240.289276,206.187622 
	C242.134445,208.415192 241.311615,210.824112 241.548569,213.365479 
z"/>
</svg>